<?xml version="1.0" standalone="no"?>
<!DOCTYPE svg PUBLIC "-//W3C//DTD SVG 20010904//EN"
 "http://www.w3.org/TR/2001/REC-SVG-20010904/DTD/svg10.dtd">
<svg version="1.0" xmlns="http://www.w3.org/2000/svg"
 width="1200.000000pt" height="1192.000000pt" viewBox="0 0 1200.000000 1192.000000"
 preserveAspectRatio="xMidYMid meet">
<metadata>
Created by potrace 1.16, written by Peter Selinger 2001-2019
</metadata>
<g transform="translate(0.000000,1192.000000) scale(0.100000,-0.100000)"
fill="#000000" stroke="none">
<path d="M5501 11644 c-95 -113 -181 -224 -191 -247 -15 -36 -19 -87 -24 -357
-4 -173 -8 -316 -10 -317 -5 -5 -958 -224 -961 -221 -2 2 -75 112 -162 244
-87 133 -172 253 -188 266 -17 14 -146 67 -295 122 l-266 98 -337 -208 -337
-207 0 -36 c-1 -20 -9 -153 -19 -296 -12 -177 -15 -271 -8 -295 5 -19 82 -141
170 -270 l161 -234 -146 -141 c-81 -77 -245 -235 -365 -352 l-219 -211 -254
144 c-140 79 -270 147 -289 150 -18 4 -161 -4 -318 -17 l-284 -23 -198 -311
c-109 -170 -201 -315 -204 -321 -9 -16 246 -560 277 -593 14 -14 126 -98 249
-186 l223 -160 -100 -497 -101 -498 -295 -1 c-199 0 -306 -4 -327 -12 -18 -7
-138 -95 -268 -197 -226 -178 -234 -186 -235 -220 0 -19 9 -195 20 -390 11
-195 20 -356 20 -357 0 -7 432 -314 454 -323 17 -6 150 -10 350 -10 l323 0
121 -477 c67 -263 120 -478 119 -479 -1 -1 -135 -80 -297 -177 -162 -96 -307
-188 -321 -204 -25 -27 -219 -467 -219 -495 1 -7 81 -157 179 -333 l177 -320
280 -52 c190 -36 292 -51 320 -47 26 4 142 60 320 155 l278 149 31 -28 c68
-64 613 -578 654 -617 l44 -43 -54 -76 -54 -76 -1427 0 -1428 0 0 -980 0 -980
5885 0 5885 0 0 980 0 980 -1309 0 -1309 0 -65 82 -66 82 24 28 c22 25 656
688 659 688 1 0 140 -72 311 -160 277 -144 315 -161 360 -161 53 -1 564 95
576 108 12 14 329 639 329 651 0 25 -215 479 -239 504 -14 14 -143 92 -286
173 -142 80 -261 147 -263 149 -4 5 194 1005 201 1012 3 3 144 10 314 14 175
5 321 13 337 20 16 6 131 85 257 176 215 156 229 168 229 197 0 18 7 187 15
376 9 190 12 347 7 350 -4 3 -95 76 -202 163 -108 86 -213 163 -235 171 -29
11 -122 19 -347 28 -169 7 -312 16 -319 19 -10 7 -219 931 -219 970 0 10 97
86 253 197 138 100 264 194 278 210 14 15 70 133 124 261 82 194 96 236 88
255 -17 37 -364 662 -371 668 -8 8 -473 51 -548 52 -46 0 -76 -14 -354 -162
l-304 -162 -343 343 c-189 189 -343 347 -343 352 0 4 71 123 157 264 86 140
161 272 167 293 7 27 4 113 -10 305 l-19 267 -311 218 -311 218 -273 -95
c-150 -52 -284 -103 -299 -113 -14 -10 -107 -137 -206 -280 -178 -260 -179
-262 -210 -255 -72 15 -909 214 -910 217 -1 1 -9 131 -18 288 -11 199 -20 296
-30 320 -8 19 -89 135 -179 259 l-165 225 -169 6 c-93 4 -270 9 -395 13 l-225
6 -173 -206z m738 -44 l96 0 120 -166 c66 -91 123 -171 127 -178 4 -7 14 -152
23 -322 20 -388 20 -392 48 -399 299 -70 1217 -287 1229 -291 12 -3 66 68 223
298 114 167 211 306 214 311 10 10 372 137 391 137 14 -1 399 -265 427 -293 7
-7 17 -83 26 -197 l14 -185 -203 -330 -202 -330 473 -474 473 -474 360 191
361 192 193 -18 193 -17 133 -243 134 -242 -71 -168 -72 -167 -310 -220 c-286
-203 -309 -222 -304 -245 3 -14 68 -307 144 -652 75 -346 140 -630 143 -633 3
-3 179 -14 391 -24 212 -11 392 -23 400 -28 8 -4 74 -55 146 -113 l131 -105
-5 -95 c-2 -52 -8 -169 -11 -260 l-6 -165 -171 -123 -170 -122 -86 -1 c-154 0
-672 -16 -675 -20 -8 -10 -268 -1350 -263 -1361 2 -7 146 -93 320 -191 l315
-178 77 -167 77 -167 -109 -218 c-59 -120 -113 -223 -120 -228 -6 -6 -100 -27
-208 -49 l-197 -38 -364 189 c-199 104 -365 189 -367 189 -4 0 -837 -866 -906
-942 -49 -55 -52 -42 33 -149 l49 -61 -2354 7 c-1295 4 -2567 10 -2827 14
l-473 6 46 64 c25 36 45 68 45 72 0 4 -204 200 -452 435 -249 235 -473 447
-498 471 l-46 43 -336 -180 -336 -181 -201 38 c-111 20 -205 39 -209 42 -4 4
-63 107 -131 229 l-124 224 69 161 69 162 352 211 c194 116 355 213 358 216 4
3 -208 855 -316 1272 l-11 39 -383 -7 -384 -6 -153 111 c-84 62 -154 113 -156
114 -3 2 -31 476 -32 527 0 11 67 71 170 153 l170 135 370 7 c204 3 370 7 370
9 0 6 262 1291 266 1305 3 12 -66 67 -258 204 -145 104 -273 197 -284 207 -12
11 -63 108 -113 217 l-92 197 137 215 c75 117 137 215 139 216 1 2 96 10 211
20 l210 17 54 -31 c30 -17 171 -97 314 -178 l259 -147 91 89 c50 49 244 237
431 418 187 180 370 358 408 394 l67 66 -198 290 c-109 160 -201 295 -204 300
-11 18 21 429 35 441 7 6 112 72 235 148 l223 136 192 -70 192 -71 197 -299
c124 -189 202 -298 210 -295 7 2 299 70 648 150 349 81 636 147 637 148 1 2 7
177 12 389 l11 387 127 152 128 152 179 -7 c99 -3 222 -6 275 -6z m5369
-10537 l-3 -748 -5647 -3 -5648 -2 0 750 0 750 5650 0 5650 0 -2 -747z"/>
<path d="M5853 10253 c-51 -5 -47 21 -28 -238 7 -104 12 -191 10 -193 -2 -2
-70 90 -151 203 l-148 207 -60 -6 c-32 -3 -61 -7 -62 -9 -2 -2 7 -147 19 -323
l22 -319 54 -3 c30 -2 57 0 61 5 4 4 1 91 -7 193 -7 102 -12 194 -11 205 3 16
152 -179 288 -376 3 -4 35 -5 70 -1 l65 7 -22 305 c-12 168 -22 315 -22 328
-1 15 -7 21 -18 20 -10 -1 -37 -3 -60 -5z"/>
<path d="M6127 10138 c-4 -62 -7 -208 -7 -325 l0 -211 58 -4 c31 -2 60 -2 63
1 4 3 9 151 12 329 l7 322 -64 0 -63 0 -6 -112z"/>
<path d="M6430 10223 c0 -26 108 -651 114 -662 3 -4 28 -11 56 -15 28 -4 57
-9 64 -12 10 -4 65 84 186 296 94 166 169 304 167 306 -6 6 -127 27 -131 23
-2 -2 -54 -98 -115 -214 -62 -115 -116 -214 -121 -218 -9 -10 -10 -6 -51 266
-25 161 -38 221 -49 227 -8 4 -39 11 -67 15 -47 6 -53 5 -53 -12z"/>
<path d="M5105 10155 c-5 -2 -28 -9 -51 -14 l-41 -11 59 -217 c32 -120 58
-233 58 -251 0 -89 -157 -146 -217 -79 -32 34 -37 49 -93 262 -30 110 -57 204
-60 208 -10 12 -120 -22 -120 -36 0 -30 112 -421 132 -464 34 -70 85 -106 159
-111 126 -9 261 45 307 123 34 59 25 145 -41 390 -52 193 -61 212 -92 200z"/>
<path d="M7185 10073 c-21 -54 -205 -597 -202 -599 1 -2 107 -39 235 -83 l233
-80 10 27 c31 81 39 73 -150 137 -98 33 -171 63 -169 69 21 74 55 156 64 156
7 0 77 -22 155 -50 78 -27 145 -48 149 -45 9 5 35 94 29 99 -2 2 -60 22 -129
45 -69 23 -137 47 -152 54 l-26 12 25 67 25 66 159 -54 c88 -30 164 -54 168
-54 10 0 45 89 38 96 -6 6 -435 154 -447 154 -4 0 -11 -8 -15 -17z"/>
<path d="M7753 9617 c-68 -122 -139 -250 -158 -284 l-34 -62 53 -30 c29 -17
56 -31 59 -31 3 0 34 52 69 115 35 63 68 115 73 115 6 0 27 -11 47 -25 45 -31
53 -55 67 -225 9 -98 15 -128 29 -138 22 -18 113 -64 117 -60 8 10 -17 260
-30 297 -8 24 -15 45 -15 47 0 2 18 1 40 -2 95 -15 178 37 205 130 19 68 8
117 -40 166 -31 32 -331 210 -352 210 -5 0 -63 -101 -130 -223z m289 12 c51
-29 94 -61 100 -74 23 -50 -19 -115 -73 -115 -24 0 -176 70 -207 96 -2 1 9 24
24 51 42 75 54 93 61 93 3 0 46 -23 95 -51z"/>
<path d="M3897 9687 c-46 -26 -57 -37 -57 -57 1 -41 87 -660 93 -666 3 -4 31
8 62 26 52 30 56 35 52 60 -3 15 -9 50 -13 78 l-6 50 53 31 c30 17 82 45 115
63 l62 32 37 -29 c93 -74 82 -69 123 -51 20 9 48 25 60 35 l24 17 -263 215
c-144 118 -268 217 -274 221 -6 4 -36 -8 -68 -25z m260 -303 c3 -11 -137 -88
-145 -79 -7 6 -40 191 -41 228 -1 14 25 -4 91 -60 51 -44 93 -84 95 -89z"/>
<path d="M5844 9459 c-807 -51 -1569 -393 -2157 -968 -515 -503 -835 -1092
-993 -1828 -2 -14 -12 -23 -23 -23 -17 0 -19 -12 -25 -117 -3 -65 -11 -307
-16 -538 -5 -231 -12 -457 -15 -502 l-5 -83 35 0 c20 0 37 -5 39 -12 2 -7 18
-80 35 -163 56 -262 184 -612 309 -845 184 -345 384 -613 659 -881 1007 -984
2485 -1250 3767 -678 698 312 1303 888 1658 1579 199 388 318 792 369 1250 17
148 17 542 0 690 -19 172 -56 381 -90 510 -27 101 -33 147 -47 380 -9 146 -18
267 -19 268 -2 2 -33 -12 -68 -32 l-65 -37 -66 131 c-178 355 -392 647 -683
931 -596 583 -1345 916 -2178 969 -176 11 -241 11 -421 -1z m614 -223 c132
-18 334 -56 420 -81 l53 -16 -26 -32 c-130 -159 -198 -272 -230 -382 -24 -81
-17 -187 17 -254 l25 -51 -23 0 -24 0 -2 -496 -3 -496 -575 -313 -575 -313 -3
389 c-1 216 -6 389 -11 389 -5 0 -287 -185 -627 -411 l-619 -411 -7 144 c-5
78 -11 252 -15 386 l-8 242 -659 -450 c-362 -248 -660 -450 -662 -447 -5 5 52
235 87 351 100 322 287 689 497 969 451 602 1075 1024 1787 1207 175 45 310
67 580 94 87 9 487 -4 603 -18z m1016 -305 c55 -28 137 -71 181 -97 75 -44 78
-48 55 -56 -52 -20 -330 -79 -438 -93 -138 -18 -172 -19 -172 -2 0 32 229 297
257 297 8 0 61 -22 117 -49z m787 -550 c204 -194 389 -419 528 -643 84 -134
227 -411 215 -416 -5 -2 -205 -115 -444 -251 l-435 -247 -6 66 c-4 36 -10 192
-14 348 -4 155 -11 282 -15 282 -5 0 -187 -99 -406 -220 -218 -121 -398 -220
-400 -220 -2 0 -4 269 -4 598 l0 598 93 12 c112 15 278 51 452 98 232 63 295
84 295 100 0 8 4 14 8 14 4 0 64 -54 133 -119z m-4881 -2026 l0 -125 -175 0
-175 0 0 125 0 125 175 0 175 0 0 -125z m560 0 l0 -125 -175 0 -175 0 0 125 0
125 175 0 175 0 0 -125z m750 0 l0 -125 -175 0 -175 0 0 125 0 125 175 0 175
0 0 -125z m580 0 l0 -125 -170 0 -170 0 0 125 0 125 170 0 170 0 0 -125z m640
0 l0 -125 -170 0 -170 0 0 125 0 125 170 0 170 0 0 -125z m600 0 l0 -125 -170
0 -170 0 0 125 0 125 170 0 170 0 0 -125z m630 0 l0 -125 -170 0 -170 0 0 125
0 125 170 0 170 0 0 -125z m640 0 l0 -125 -170 0 -170 0 0 125 0 125 170 0
170 0 0 -125z m630 0 l0 -125 -175 0 -175 0 0 125 0 125 175 0 175 0 0 -125z
m630 0 l0 -125 -175 0 -175 0 0 125 0 125 175 0 175 0 0 -125z m200 -931 c0
-9 -12 -69 -26 -133 -144 -642 -466 -1216 -935 -1665 -505 -484 -1123 -780
-1824 -873 -181 -24 -599 -24 -780 0 -884 118 -1650 568 -2187 1284 -221 296
-412 676 -511 1018 -40 139 -90 355 -83 362 2 2 1423 8 3158 12 1734 4 3161 8
3171 9 10 1 17 -5 17 -14z"/>
<path d="M5820 5244 c-91 -16 -192 -42 -338 -85 -186 -56 -373 -99 -427 -99
-28 0 -45 -9 -83 -44 -26 -24 -61 -56 -78 -72 -28 -26 -58 -108 -292 -806
l-261 -777 46 -7 c26 -4 110 -4 187 -1 150 6 300 30 592 97 249 57 347 72 459
73 104 1 170 -18 219 -61 30 -27 65 -111 72 -175 l7 -57 156 2 156 3 7 63 c10
87 34 157 70 197 78 90 188 87 598 -15 157 -39 337 -79 400 -90 194 -33 482
-51 494 -32 3 5 -115 364 -263 798 l-268 789 -62 49 c-56 44 -68 49 -135 57
-113 12 -223 41 -453 119 -115 38 -237 73 -270 76 -85 9 -158 -14 -220 -70
l-49 -44 -21 33 c-12 18 -41 42 -65 53 -43 21 -132 34 -178 26z m140 -82 c24
-12 43 -33 60 -67 l25 -50 2 -745 3 -745 -22 30 c-12 17 -54 63 -92 103 -93
97 -166 134 -278 140 -104 6 -142 -3 -443 -103 -301 -100 -615 -170 -615 -137
0 8 135 427 356 1108 l94 292 98 17 c53 9 183 42 287 73 357 104 455 120 525
84z m496 -6 c44 -13 148 -49 232 -80 168 -62 247 -83 354 -94 l72 -7 221 -690
222 -690 -27 -3 c-49 -5 -319 55 -587 132 -304 87 -368 100 -472 94 -131 -8
-244 -78 -323 -201 l-33 -52 -3 739 -2 738 33 47 c68 94 160 114 313 67z
m1014 -989 c137 -405 250 -740 250 -744 0 -12 -266 6 -390 28 -68 11 -250 52
-404 90 -396 98 -481 105 -592 53 -73 -35 -132 -133 -149 -247 -7 -46 -8 -47
-45 -47 -20 0 -64 -3 -96 -6 l-59 -6 -18 70 c-31 120 -96 187 -212 217 -119
31 -243 17 -633 -69 -136 -31 -290 -62 -342 -71 -117 -19 -350 -32 -350 -19 0
5 111 338 246 739 150 449 252 738 264 750 11 11 20 15 20 9 0 -9 -429 -1343
-446 -1389 -8 -20 27 -20 165 1 163 23 326 67 593 156 243 83 243 83 348 83
91 0 112 -3 155 -24 68 -33 169 -137 240 -246 32 -49 62 -94 65 -98 4 -5 29
31 54 80 111 207 209 283 367 283 88 0 159 -16 431 -94 353 -102 708 -172 708
-140 0 6 -426 1333 -447 1391 -5 16 -4 16 10 3 9 -8 129 -347 267 -753z"/>
<path d="M3401 9362 l-45 -39 137 -163 c76 -90 136 -164 134 -166 -2 -2 -111
32 -242 76 l-238 79 -49 -40 -48 -41 42 -51 c234 -281 372 -443 379 -445 10
-4 89 59 89 70 0 5 -59 78 -131 164 -72 85 -130 157 -128 159 2 1 105 -30 229
-71 124 -41 234 -72 245 -69 11 3 37 21 58 40 l38 36 -132 157 c-73 86 -166
198 -208 249 -42 50 -78 92 -81 92 -3 1 -25 -16 -49 -37z"/>
<path d="M8537 9369 c-49 -8 -86 -36 -114 -85 -44 -76 -26 -144 71 -283 70
-98 76 -122 42 -155 -45 -46 -114 -30 -175 40 -29 32 -32 42 -29 83 3 25 8 53
12 62 5 12 -6 26 -43 53 -28 20 -53 36 -55 36 -2 0 -13 -22 -25 -49 -44 -103
-20 -194 74 -280 105 -95 189 -119 278 -78 66 30 107 84 114 151 7 61 -9 104
-83 211 -74 108 -84 137 -59 165 24 26 50 25 100 -5 60 -35 79 -67 72 -126 -6
-47 -5 -48 40 -83 25 -19 50 -33 55 -30 18 11 38 73 38 116 0 58 -33 120 -93
173 -80 73 -145 97 -220 84z"/>
<path d="M8825 8760 l-230 -230 48 -47 47 -48 232 232 233 233 -45 45 c-24 25
-47 45 -50 45 -3 0 -109 -103 -235 -230z"/>
<path d="M2822 8818 l-33 -43 33 -30 c19 -16 94 -78 167 -137 81 -66 126 -108
115 -108 -11 0 -125 14 -254 31 l-235 30 -23 -28 c-55 -67 -57 -71 -31 -92 13
-11 128 -103 254 -205 l230 -187 37 43 c21 24 38 45 38 48 0 3 -72 64 -161
135 -89 72 -155 131 -147 133 8 1 117 -11 243 -28 l230 -30 43 47 c23 26 42
50 42 54 0 9 -488 403 -504 407 -6 1 -26 -17 -44 -40z"/>
<path d="M9194 8758 l-35 -33 62 -73 c60 -72 61 -74 43 -91 -11 -10 -101 -86
-201 -170 -101 -84 -185 -156 -188 -162 -6 -9 61 -99 74 -99 3 0 97 77 209
171 112 93 207 169 211 167 5 -2 34 -33 65 -71 l58 -67 27 19 c47 34 56 48 40
68 -74 94 -313 373 -320 373 -5 0 -25 -15 -45 -32z"/>
<path d="M9551 8057 l-110 -193 -108 -57 c-59 -32 -114 -61 -122 -66 -11 -7
-8 -20 18 -65 l32 -56 97 51 c53 29 107 58 119 65 19 12 52 12 215 -1 106 -8
208 -15 226 -15 l34 0 -34 63 -35 62 -109 7 c-60 4 -128 8 -151 10 l-41 3 78
128 78 127 -35 65 c-19 36 -36 65 -38 65 -2 0 -53 -87 -114 -193z"/>
<path d="M2260 8009 l-31 -60 27 -32 c195 -232 429 -496 434 -490 4 5 20 31
36 59 l28 52 -53 57 c-35 39 -50 63 -46 74 3 9 31 62 61 118 l55 103 57 -6
c106 -12 100 -14 134 49 17 31 29 59 27 61 -4 4 -650 76 -681 76 -12 0 -29
-22 -48 -61z m290 -90 c52 -7 96 -13 98 -14 5 -4 -66 -143 -76 -149 -9 -5
-172 165 -172 179 0 4 12 4 28 1 15 -3 70 -10 122 -17z"/>
<path d="M1565 1385 c-104 -37 -164 -208 -152 -430 12 -213 87 -335 207 -335
82 0 141 55 181 170 20 56 23 86 23 210 1 123 -2 156 -21 215 -46 145 -134
208 -238 170z m116 -141 c39 -35 54 -102 54 -234 0 -135 -10 -181 -52 -230
-19 -24 -33 -30 -63 -30 -44 0 -79 33 -102 97 -21 61 -18 276 6 336 30 80 105
108 157 61z"/>
<path d="M2047 1386 c-53 -19 -76 -42 -108 -110 -42 -88 -52 -152 -47 -300 5
-146 26 -222 76 -286 75 -94 206 -91 292 6 l30 35 0 149 0 150 -95 0 -95 0 0
-60 0 -60 50 0 50 0 0 -54 c0 -48 -3 -57 -31 -80 -43 -36 -101 -36 -135 1 -37
40 -57 123 -57 238 0 123 15 179 58 222 53 53 111 39 146 -36 12 -25 23 -47
24 -48 0 -1 18 3 38 9 44 14 47 31 17 111 -23 61 -49 89 -102 112 -45 18 -61
18 -111 1z"/>
<path d="M3303 1379 c-101 -50 -125 -259 -40 -356 17 -19 61 -50 98 -68 37
-19 75 -45 83 -57 21 -30 20 -76 -3 -114 -38 -62 -109 -52 -141 18 -11 24 -20
54 -20 67 0 17 -4 22 -16 17 -9 -3 -27 -6 -41 -6 -25 0 -26 -1 -20 -60 11
-124 75 -200 169 -200 114 0 171 80 170 240 0 130 -33 181 -149 237 -103 49
-126 91 -82 147 15 19 30 26 54 26 41 0 61 -19 75 -71 8 -30 15 -39 26 -35 9
3 27 6 40 6 21 0 24 5 24 34 0 83 -54 168 -119 186 -50 14 -60 13 -108 -11z"/>
<path d="M3726 1390 c-68 -22 -105 -90 -106 -196 0 -129 32 -183 142 -236 40
-19 79 -42 86 -51 21 -24 17 -95 -5 -126 -56 -75 -133 -35 -158 81 -5 25 -8
27 -38 21 -48 -9 -51 -16 -38 -79 25 -126 77 -184 164 -184 58 0 88 12 121 47
61 65 74 234 25 330 -21 41 -36 53 -101 88 -100 53 -118 70 -118 112 0 43 30
73 73 73 41 0 66 -25 74 -74 4 -27 10 -36 20 -32 8 4 28 6 44 6 l30 0 -6 48
c-10 67 -38 126 -72 150 -35 25 -96 35 -137 22z"/>
<path d="M5584 1390 c-61 -19 -119 -107 -143 -218 -16 -78 -14 -276 4 -347 36
-136 88 -195 179 -203 63 -5 103 13 141 62 99 130 107 472 14 623 -44 71 -123
104 -195 83z m111 -153 c18 -18 38 -51 44 -73 39 -151 8 -368 -58 -404 -34
-18 -77 -12 -104 16 -41 40 -59 110 -59 228 0 128 19 204 63 240 41 35 74 33
114 -7z"/>
<path d="M6506 1390 c-43 -14 -91 -65 -120 -129 -70 -156 -55 -440 29 -563 68
-99 199 -102 294 -8 l31 32 0 154 0 154 -90 0 -90 0 0 -60 0 -60 50 0 50 0 0
-47 c0 -27 -6 -55 -13 -63 -45 -58 -121 -67 -160 -20 -42 50 -52 94 -52 235 0
116 2 135 24 178 23 47 61 77 99 77 31 0 71 -38 83 -81 13 -42 13 -42 76 -18
21 8 21 10 9 63 -15 64 -48 117 -86 140 -35 20 -97 28 -134 16z"/>
<path d="M8454 1389 c-44 -12 -98 -75 -123 -143 -30 -81 -43 -226 -31 -337 22
-189 91 -289 202 -289 62 0 108 28 145 90 49 80 66 175 61 333 -7 193 -50 296
-142 338 -45 20 -65 22 -112 8z m105 -145 c43 -36 61 -104 61 -234 0 -170 -39
-260 -112 -260 -47 0 -71 21 -98 82 -20 45 -24 70 -24 168 -1 136 13 191 59
237 40 40 73 42 114 7z"/>
<path d="M10728 1390 c-51 -15 -87 -50 -117 -113 -39 -83 -51 -148 -51 -270 0
-233 75 -374 204 -385 62 -5 102 12 159 66 l37 36 0 153 0 153 -95 0 -95 0 0
-59 0 -60 53 -3 52 -3 3 -46 c3 -42 0 -49 -33 -78 -66 -57 -134 -36 -175 54
-18 40 -26 257 -11 311 36 134 143 164 194 55 12 -25 22 -47 22 -48 1 -1 18 3
39 9 38 12 38 12 32 55 -17 128 -114 205 -218 173z"/>
<path d="M580 1005 l0 -375 45 0 44 0 3 143 3 142 70 5 c86 6 109 19 137 73
17 32 23 64 26 137 5 117 -9 173 -53 217 l-33 33 -121 0 -121 0 0 -375z m214
232 c30 -30 40 -84 24 -133 -15 -45 -45 -64 -105 -64 l-43 0 0 110 0 110 50 0
c40 0 56 -5 74 -23z"/>
<path d="M990 1005 l0 -375 40 0 40 0 0 154 c0 85 3 157 8 159 4 3 20 3 36 0
36 -7 55 -38 114 -190 l47 -123 51 0 52 0 -38 103 c-56 152 -59 159 -87 195
-14 18 -23 34 -22 35 2 2 16 9 31 16 45 23 78 102 78 185 0 94 -15 143 -55
183 l-33 33 -131 0 -131 0 0 -375z m240 235 c15 -15 20 -33 20 -78 0 -78 -15
-92 -106 -95 l-69 -2 -3 84 c-2 46 -1 90 2 98 4 9 25 13 71 13 52 0 69 -4 85
-20z"/>
<path d="M2370 1005 l0 -375 45 0 45 0 0 160 c0 88 4 160 9 160 4 0 22 -5 38
-10 33 -12 48 -38 112 -205 l38 -100 52 -3 c28 -2 51 -1 51 2 0 18 -103 272
-120 297 -12 16 -21 31 -19 33 2 1 17 10 32 20 71 44 96 221 47 322 -14 27
-36 55 -50 61 -16 8 -72 13 -152 13 l-128 0 0 -375z m240 237 c28 -23 37 -87
17 -133 -13 -32 -20 -37 -62 -42 -26 -4 -61 -7 -76 -7 l-29 0 0 100 0 100 64
0 c46 0 70 -5 86 -18z"/>
<path d="M2810 1005 l0 -375 165 0 165 0 0 60 0 60 -120 0 -120 0 0 105 0 104
108 3 107 3 3 63 3 62 -111 0 -110 0 0 85 0 85 115 0 115 0 0 60 0 60 -160 0
-160 0 0 -375z"/>
<path d="M4160 1320 l0 -60 65 0 65 0 0 -315 0 -315 45 0 45 0 0 315 0 315 65
0 65 0 0 60 0 60 -175 0 -175 0 0 -60z"/>
<path d="M4570 1005 l0 -375 40 0 40 0 0 165 0 165 90 0 90 0 0 -165 0 -165
40 0 40 0 0 375 0 375 -40 0 -40 0 0 -145 0 -145 -90 0 -90 0 0 145 0 145 -40
0 -40 0 0 -375z"/>
<path d="M5010 1005 l0 -375 40 0 39 0 3 158 3 157 30 -3 c41 -4 53 -22 114
-177 l53 -135 50 0 c58 0 58 -14 -3 150 -22 57 -51 122 -66 144 -20 31 -23 41
-12 45 8 2 28 18 45 35 80 80 63 318 -26 363 -16 8 -69 13 -147 13 l-123 0 0
-375z m237 229 c23 -23 25 -32 21 -80 -6 -73 -19 -84 -104 -87 l-69 -2 -3 98
-3 97 66 0 c57 0 69 -3 92 -26z"/>
<path d="M5922 1067 c3 -311 3 -313 28 -361 34 -65 76 -88 152 -83 68 4 99 27
132 97 19 42 21 66 24 353 l4 307 -46 0 -46 0 0 -282 c0 -266 -1 -285 -20
-316 -19 -30 -24 -33 -62 -30 -31 2 -46 10 -62 31 -20 27 -21 42 -24 313 l-3
284 -40 0 -40 0 3 -313z"/>
<path d="M6830 1005 l0 -375 40 0 40 0 0 165 0 165 90 0 90 0 0 -165 0 -165
40 0 40 0 0 375 0 375 -40 0 -40 0 0 -145 0 -145 -90 0 -90 0 0 145 0 145 -40
0 -40 0 0 -375z"/>
<path d="M7440 1005 l0 -375 40 0 40 0 0 110 c0 97 3 116 24 158 50 96 45 100
111 -93 l59 -175 53 0 c29 0 53 3 53 6 0 4 -36 103 -80 221 -44 118 -80 222
-80 230 0 8 33 74 73 146 39 72 74 135 76 139 1 5 -23 8 -55 6 l-59 -3 -85
-160 -85 -160 -3 163 -2 162 -40 0 -40 0 0 -375z"/>
<path d="M7870 1005 l0 -375 40 0 40 0 0 242 c0 133 4 238 8 233 5 -6 37 -91
72 -190 34 -99 71 -204 82 -232 l19 -53 45 0 44 0 0 375 0 375 -40 0 -40 0 0
-247 c0 -135 -2 -244 -5 -241 -3 2 -34 88 -70 189 -36 101 -75 210 -86 242
l-21 57 -44 0 -44 0 0 -375z"/>
<path d="M8742 1368 c3 -7 27 -176 54 -375 l49 -363 47 0 c27 0 48 2 48 5 0 2
18 122 40 266 22 144 40 266 40 272 0 6 2 8 5 5 5 -4 85 -513 85 -538 0 -5 21
-10 48 -10 l47 0 49 353 c26 193 50 362 53 375 5 20 2 22 -39 22 l-44 0 -28
-222 c-41 -328 -37 -324 -75 -62 -18 126 -35 241 -38 257 -5 25 -9 27 -57 27
l-51 0 -34 -227 c-32 -214 -48 -298 -50 -263 -1 8 -15 121 -31 250 -16 129
-30 236 -30 238 0 1 -21 2 -46 2 -33 0 -45 -4 -42 -12z"/>
<path d="M9360 1006 l0 -376 150 0 150 0 0 60 0 60 -105 0 -105 0 -2 313 -3
312 -42 3 -43 3 0 -375z"/>
<path d="M9730 1005 l0 -375 165 0 165 0 0 60 0 59 -122 3 -123 3 -3 103 -3
102 111 0 110 0 0 65 0 65 -110 0 -111 0 3 83 3 82 118 3 117 3 0 59 0 60
-160 0 -160 0 0 -375z"/>
<path d="M10130 1004 l0 -376 114 4 c97 2 119 6 143 24 74 55 106 161 106 354
-1 139 -18 227 -59 297 -36 63 -64 73 -194 73 l-110 0 0 -376z m210 241 c48
-25 65 -88 65 -240 0 -102 -4 -140 -18 -178 -22 -55 -33 -63 -109 -72 l-58 -7
0 256 0 256 45 0 c26 0 59 -7 75 -15z"/>
<path d="M11050 1005 l0 -375 160 0 160 0 0 60 0 59 -117 3 -118 3 -3 103 -3
102 111 0 110 0 0 65 0 65 -110 0 -110 0 0 85 0 85 120 0 120 0 0 60 0 60
-160 0 -160 0 0 -375z"/>
</g>
</svg>
